<svg xmlns="http://www.w3.org/2000/svg" viewBox="0 0 512 512" role="img" aria-label="WhatsApp">
  <circle cx="256" cy="256" r="256" fill="#25D366"/>
  <path fill="#fff" d="M372.6 139.4A164.5 164.5 0 0 0 115.4 337L96 416l81.5-19a164.4 164.4 0 0 0 79 20.1h.1A164.6 164.6 0 0 0 372.6 139.4Zm-116 249.9h-.1a136.5 136.5 0 0 1-69.6-19.1l-5-3-48.4 11.3 11.5-47.1-3.3-5.1a136.7 136.7 0 1 1 114.9 63Zm75-102.4c-4.1-2.1-24.2-11.9-28-13.3-3.7-1.4-6.5-2.1-9.2 2.1-2.7 4.1-10.6 13.3-13 16-2.4 2.7-4.8 3.1-8.9 1-4.1-2.1-17.3-6.4-32.9-20.3-12.2-10.9-20.4-24.3-22.8-28.4-2.4-4.1-.3-6.4 1.8-8.4 1.9-1.8 4.1-4.8 6.2-7.2 2.1-2.4 2.7-4.1 4.1-6.8 1.4-2.7.7-5.1-.3-7.2-1-2.1-9.2-22.2-12.6-30.4-3.3-8-6.7-6.9-9.2-7-2.4-.1-5.1-.1-7.8-.1s-7.2 1-11 5.1c-3.7 4.1-14.3 14-14.3 34.2s14.7 39.7 16.8 42.4c2.1 2.7 28.9 44.1 70 61.8 9.8 4.2 17.4 6.7 23.4 8.6 9.8 3.1 18.7 2.7 25.8 1.6 7.9-1.2 24.2-9.9 27.6-19.5 3.4-9.6 3.4-17.8 2.4-19.5-1-1.7-3.7-2.7-7.8-4.8Z"/>
</svg>
